# xmcd
#
# Track frame offsets: 
#        150
#        11815
#        24915
#        39750
#        53545
#        68205
#        82802
#        95707
#        112262
#        131655
#        147082
#        163300
#        175125
#        190777
#        200807
#        215587
#
# Disc length: 3017 seconds
#
# Revision: 0
# Processed by: cddbd v1.5.1PL0 Copyright (c) Steve Scherf et al.
# Submitted via: ExactAudioCopy v0.95a5
#
DISCID=e00bc710
DTITLE=Sammi Smith - Sammi With a Bullet
DYEAR=2000
DGENRE=Country
TTITLE0=Help Me Make It Through the Night
TTITLE1=He's Everywhere
TTITLE2=Then You Walk In
TTITLE3=For the Kids
TTITLE4=Kentucky
TTITLE5=I've Got to Have You
TTITLE6=The Toast of 45
TTITLE7=I Miss You Most When You're Right Here
TTITLE8=City of New Orleans
TTITLE9=The Rainbow in Daddy's Eyes
TTITLE10=Long Black Veil
TTITLE11=Cover Me
TTITLE12=Today I Started Loving You Again
TTITLE13=My Window Faces South
TTITLE14=Saunders Ferry Lane
TTITLE15=When Michael Calls
EXTD=
EXTT0=
EXTT1=
EXTT2=
EXTT3=
EXTT4=
EXTT5=
EXTT6=
EXTT7=
EXTT8=
EXTT9=
EXTT10=
EXTT11=
EXTT12=
EXTT13=
EXTT14=
EXTT15=
PLAYORDER=
